<?xml version="1.0" encoding="utf-8"?>
<!-- Generator: Adobe Illustrator 28.3.0, SVG Export Plug-In . SVG Version: 6.00 Build 0)  -->
<svg version="1.1" id="Слой_1" xmlns="http://www.w3.org/2000/svg" xmlns:xlink="http://www.w3.org/1999/xlink" x="0px" y="0px"
	 viewBox="0 0 180 60" style="enable-background:new 0 0 180 60;" xml:space="preserve">
<style type="text/css">
	.st0{fill:#FFFFFF;stroke:#009444;stroke-width:2;stroke-miterlimit:10;}
	.st1{fill:#00A646;}
</style>
<rect x="3.8" y="2.5" class="st0" width="172.5" height="55"/>
<g>
	<path class="st1" d="M10.6,18.1c1.6-1,3.6-1.8,6.1-1.8c4,0,6.8,2.1,6.8,5.8c0,2.9-2.1,5.1-4.8,5.7v0.1c3.3,0.3,5.6,2.5,5.6,5.9
		c0,4.9-4.1,6.8-8.4,6.8c-2.1,0-4.3-0.5-6-1.5l0.8-2.4c1.2,0.7,3.3,1.4,5.2,1.4c3.4,0,5.3-1.9,5.3-4.5c0-3.5-3.3-4.5-6.3-4.5h-1.4
		v-2.3H15c3,0,5.4-1.9,5.4-4.3c0-2.4-1.6-3.7-4.1-3.7c-1.7,0-3.6,0.7-4.8,1.5L10.6,18.1z"/>
	<path class="st1" d="M37.4,40.2l-0.2-2.1h-0.1c-0.9,1.3-2.7,2.5-5.1,2.5c-3.4,0-5.1-2.4-5.1-4.9c0-4.1,3.6-6.3,10-6.3v-0.3
		c0-1.4-0.4-3.9-3.8-3.9c-1.5,0-3.2,0.5-4.3,1.3l-0.7-2c1.4-0.9,3.4-1.5,5.4-1.5c5.1,0,6.3,3.5,6.3,6.9v6.3c0,1.5,0.1,2.9,0.3,4
		H37.4z M37,31.6c-3.3-0.1-7,0.5-7,3.8c0,2,1.3,2.9,2.8,2.9c2.2,0,3.5-1.4,4-2.8c0.1-0.3,0.2-0.7,0.2-1V31.6z"/>
	<path class="st1" d="M44.7,23.6c1.2-0.2,3.3-0.4,5.3-0.4c2.8,0,7.4,0.5,7.4,4.2c0,2.1-1.6,3.4-3.5,3.8v0.1c2.4,0.3,4.2,1.7,4.2,4.2
		c0,4.4-5.5,5-8.7,5c-1.8,0-3.8-0.1-4.7-0.2V23.6z M47.5,38.2c0.9,0.1,1.5,0.1,2.4,0.1c2,0,5-0.5,5-2.9c0-2.4-2.4-3-5.3-3h-2.2V38.2
		z M47.6,30.4h2.3c2.2,0,4.5-0.7,4.5-2.7c0-1.7-1.4-2.5-4.5-2.5c-1,0-1.6,0.1-2.3,0.1V30.4z"/>
	<path class="st1" d="M63.6,32.4c0.1,4.2,2.7,5.9,5.7,5.9c2.2,0,3.5-0.4,4.6-0.9l0.5,2.2c-1.1,0.5-2.9,1-5.5,1
		c-5.1,0-8.2-3.4-8.2-8.5s2.9-9.1,7.8-9.1c5.4,0,6.9,4.9,6.9,8c0,0.6-0.1,1.1-0.1,1.4H63.6z M72.4,30.2c0-2-0.8-5-4.2-5
		c-3,0-4.4,2.9-4.6,5H72.4z"/>
	<path class="st1" d="M79.1,28.9c0-2.2-0.1-3.9-0.1-5.5h2.7l0.1,2.9h0.1c1.2-2.1,3.2-3.3,5.9-3.3c4,0,7,3.5,7,8.6
		c0,6.1-3.6,9.1-7.5,9.1c-2.2,0-4.1-1-5.1-2.7H82v9.2h-3V28.9z M82,33.4c0,0.5,0.1,0.9,0.1,1.3c0.5,2.1,2.4,3.6,4.5,3.6
		c3.2,0,5-2.7,5-6.5c0-3.4-1.7-6.3-4.9-6.3c-2.1,0-4,1.5-4.6,3.8c-0.1,0.4-0.2,0.8-0.2,1.3V33.4z"/>
	<path class="st1" d="M101.4,23.4v14.5h5.8V23.4h2.9v14.5h5.8V23.4h3v16.9H98.5V23.4H101.4z"/>
	<path class="st1" d="M126.6,23.4v7.1c0,2.7,0,4.4-0.2,6.8l0.1,0c1-2.1,1.6-3.2,2.7-5.2l5.2-8.7h3.5v16.9H135v-7.2
		c0-2.8,0.1-4.2,0.2-6.9h-0.1c-1.1,2.2-1.8,3.5-2.7,5.2c-1.6,2.6-3.4,5.9-5.2,8.8h-3.5V23.4H126.6z"/>
	<path class="st1" d="M153.9,23.4v2.4h-5.2v14.4h-3V25.8h-5.2v-2.4H153.9z"/>
	<path class="st1" d="M159.5,23.4v5.7c0.7-0.1,1.9-0.2,2.7-0.2c3.7,0,7.7,1.2,7.7,5.7c0,1.7-0.7,3-1.7,3.9c-1.8,1.6-4.8,2-7.2,2
		c-1.7,0-3.2-0.1-4.5-0.2V23.4H159.5z M159.5,38.1c0.6,0.1,1.2,0.1,2.2,0.1c2.3,0,5.2-0.8,5.2-3.6c0-2.9-3-3.6-5.2-3.6
		c-0.8,0-1.5,0.1-2.2,0.2V38.1z"/>
</g>
</svg>
