<?xml version="1.0" encoding="utf-8"?>
<!-- Generator: Adobe Illustrator 28.3.0, SVG Export Plug-In . SVG Version: 6.00 Build 0)  -->
<svg version="1.1" id="Слой_1" xmlns="http://www.w3.org/2000/svg" xmlns:xlink="http://www.w3.org/1999/xlink" x="0px" y="0px"
	 viewBox="0 0 60 60" style="enable-background:new 0 0 60 60;" xml:space="preserve">
<style type="text/css">
	.st0{fill:none;stroke:#009444;stroke-width:2;stroke-miterlimit:10;}
	.st1{fill:none;stroke:#009444;stroke-width:2;stroke-miterlimit:10;stroke-dasharray:2.8462,2.8462;}
	.st2{fill:#FFFFFF;stroke:#009444;stroke-width:2;stroke-miterlimit:10;}
	.st3{fill:none;stroke:#009444;stroke-width:2;stroke-linecap:round;stroke-linejoin:round;stroke-miterlimit:10;}
</style>
<g>
	<g>
		<line class="st0" x1="50" y1="50" x2="50" y2="48.5"/>
		<line class="st1" x1="50" y1="45.7" x2="50" y2="12.9"/>
		<line class="st0" x1="50" y1="11.5" x2="50" y2="10"/>
	</g>
</g>
<line class="st0" x1="10" y1="50.9" x2="10" y2="10.9"/>
<line class="st0" x1="10" y1="10" x2="50" y2="10"/>
<line class="st0" x1="12" y1="50" x2="48" y2="50"/>
<circle class="st2" cx="10" cy="50" r="7.9"/>
<circle class="st2" cx="50" cy="10" r="7.9"/>
<circle class="st2" cx="10" cy="10" r="7.9"/>
<circle class="st2" cx="50" cy="50" r="7.9"/>
<path class="st3" d="M15.6,34.2v-8.3C14.9,27,14.1,28,13.2,29"/>
<path class="st3" d="M31.2,21.5v-8.3c-0.7,1.1-1.5,2.2-2.4,3.2"/>
<path class="st3" d="M31.2,47.4v-8.3c-0.7,1.1-1.5,2.2-2.4,3.2"/>
<path class="st3" d="M42.1,33.5c0.1,0.1,1,1,2.1,0.6c0.9-0.3,1.6-1.4,1.5-2.5c-0.1-1.1-0.9-1.7-0.9-1.8c-0.7-0.5-1.7-0.5-2.4,0
	c0.1-0.7,0.2-1.3,0.4-2c0.1-0.7,0.3-1.3,0.4-1.9c1,0,2,0.1,3.1,0.1"/>
</svg>
