<?xml version="1.0" encoding="utf-8"?>
<!-- Generator: Adobe Illustrator 28.3.0, SVG Export Plug-In . SVG Version: 6.00 Build 0)  -->
<svg version="1.1" id="Слой_1" xmlns="http://www.w3.org/2000/svg" xmlns:xlink="http://www.w3.org/1999/xlink" x="0px" y="0px"
	 viewBox="0 0 60 60" style="enable-background:new 0 0 60 60;" xml:space="preserve">
<style type="text/css">
	.st0{fill:#FFFFFF;stroke:#009444;stroke-width:2;stroke-miterlimit:10;}
	.st1{fill:none;stroke:#009444;stroke-width:2;stroke-miterlimit:10;}
</style>
<path class="st0" d="M30,54.9L30,54.9c-8.6,0-15.7-7-15.7-15.7V17.7c0-7,5.6-12.6,12.6-12.6h6.1c7,0,12.6,5.6,12.6,12.6v21.6
	C45.7,47.9,38.6,54.9,30,54.9z"/>
<line class="st1" x1="14.3" y1="25.2" x2="45.7" y2="25.2"/>
<line class="st1" x1="30" y1="5.1" x2="30" y2="22.7"/>
<path class="st0" d="M30,29.2L30,29.2c-1.5,0-2.7-1.2-2.7-2.7v-6.8c0-1.5,1.2-2.7,2.7-2.7h0c1.5,0,2.7,1.2,2.7,2.7v6.8
	C32.7,28,31.5,29.2,30,29.2z"/>
</svg>
