<?xml version="1.0" encoding="utf-8"?>
<!-- Generator: Adobe Illustrator 28.3.0, SVG Export Plug-In . SVG Version: 6.00 Build 0)  -->
<svg version="1.1" id="Слой_1" xmlns="http://www.w3.org/2000/svg" xmlns:xlink="http://www.w3.org/1999/xlink" x="0px" y="0px"
	 viewBox="0 0 60 60" style="enable-background:new 0 0 60 60;" xml:space="preserve">
<style type="text/css">
	.st0{fill:#FFFFFF;stroke:#009444;stroke-width:2;stroke-miterlimit:10;}
	.st1{fill:#A4FF6B;stroke:#009444;stroke-width:2;stroke-miterlimit:10;}
</style>
<path class="st0" d="M31.7,58h-3.4c-8.6,0-15.7-7-15.7-15.7V14.6c0-7,5.6-12.6,12.6-12.6h9.5c7,0,12.6,5.6,12.6,12.6v27.8
	C47.4,51,40.4,58,31.7,58z"/>
<path class="st1" d="M34.8,2H30v22.6h17.4v-10C47.4,7.6,41.7,2,34.8,2z"/>
<path class="st0" d="M30,29.2L30,29.2c-1.5,0-2.7-1.2-2.7-2.7v-6.8c0-1.5,1.2-2.7,2.7-2.7h0c1.5,0,2.7,1.2,2.7,2.7v6.8
	C32.7,28,31.5,29.2,30,29.2z"/>
</svg>
