<?xml version="1.0" encoding="utf-8"?>
<!-- Generator: Adobe Illustrator 28.3.0, SVG Export Plug-In . SVG Version: 6.00 Build 0)  -->
<svg version="1.1" id="Слой_1" xmlns="http://www.w3.org/2000/svg" xmlns:xlink="http://www.w3.org/1999/xlink" x="0px" y="0px"
	 viewBox="0 0 60 60" style="enable-background:new 0 0 60 60;" xml:space="preserve">
<style type="text/css">
	.st0{fill:none;stroke:#009444;stroke-width:2;stroke-miterlimit:10;}
	.st1{fill:none;stroke:#009444;stroke-width:2;stroke-miterlimit:10;stroke-dasharray:2;}
	.st2{fill:#FFFFFF;stroke:#009444;stroke-width:2;stroke-miterlimit:10;}
	.st3{fill:none;stroke:#009444;stroke-width:2;stroke-linecap:round;stroke-linejoin:round;stroke-miterlimit:10;}
</style>
<path class="st0" d="M50,15.2c0,11.6,0.1,23.3,0.1,34.9"/>
<path class="st0" d="M10.2,45c13.3,1.7,26.6,3.3,39.8,5"/>
<path class="st0" d="M10.1,10.1c13.3,1.7,26.6,3.3,39.8,5"/>
<path class="st1" d="M10.1,10.1c0,11.6,0.1,23.3,0.1,34.9"/>
<circle class="st2" cx="10" cy="10" r="7.9"/>
<circle class="st2" cx="10" cy="45" r="7.9"/>
<circle class="st2" cx="50" cy="15" r="7.9"/>
<circle class="st2" cx="50" cy="50" r="7.9"/>
<path class="st3" d="M44.9,36.8v-8.3c-0.7,1.1-1.5,2.2-2.4,3.2"/>
<path class="st3" d="M38.2,10.1V1.8C37.5,2.9,36.7,4,35.8,5"/>
<path class="st3" d="M24.3,57.9v-8.3c-0.7,1.1-1.5,2.2-2.4,3.2"/>
<path class="st3" d="M16.2,24.3c0.4-0.7,1.1-1.1,1.8-1c0.7,0.1,1.3,0.5,1.5,1.1c0.3,0.9-0.2,2-1.2,2.5c0.1,0,1.4,0.1,2,1.2
	c0.5,0.9,0.3,2-0.3,2.8c-0.8,1-2.2,0.9-2.5,0.8c-1.4-0.1-2.1-1.1-2.3-1.3"/>
</svg>
