<?xml version="1.0" encoding="utf-8"?>
<!-- Generator: Adobe Illustrator 23.1.0, SVG Export Plug-In . SVG Version: 6.00 Build 0)  -->
<svg version="1.1" id="Слой_1" xmlns="http://www.w3.org/2000/svg" xmlns:xlink="http://www.w3.org/1999/xlink" x="0px" y="0px"
	 viewBox="0 0 60 60" style="enable-background:new 0 0 60 60;" xml:space="preserve">
<style type="text/css">
	.st0{fill:none;stroke:#009444;stroke-width:2;stroke-miterlimit:10;}
	.st1{fill:#009444;}
</style>
<circle class="st0" cx="30" cy="30" r="26.2"/>
<g>
	<g>
		<path class="st1" d="M24.1,25.5c1.9-0.6,3.5-1.8,4.8-3.2c0.6-0.8,1.3-1.7,1.8-2.6c0.4-0.6,0.6-1.5,1.2-2.1
			c-0.9-0.4-1.8-0.8-2.7-1.2c0,9,0,18.1,0,27.1c0,2.1,3.2,2.1,3.2,0c0-9,0-18.1,0-27.1c0-1.4-1.8-2.1-2.7-1.2c-1,1-1.5,2.6-2.5,3.9
			c-0.9,1.4-2.2,2.7-3.9,3.2C21.3,23,22.2,26.1,24.1,25.5L24.1,25.5z"/>
	</g>
</g>
</svg>
